<?xml version="1.0" encoding="UTF-8"?>
<svg width="33px" height="32px" viewBox="0 0 33 32" version="1.1" xmlns="http://www.w3.org/2000/svg" xmlns:xlink="http://www.w3.org/1999/xlink">
    <title>Group 6</title>
    <g id="Moodboard" stroke="none" stroke-width="1" fill="none" fill-rule="evenodd">
        <g id="Variante-Primer-Fold-" transform="translate(-1140.000000, -55.000000)">
            <g id="Group-8" transform="translate(50.000000, 55.000000)">
                <g id="Group-7" transform="translate(865.500000, 0.000000)">
                    <g id="Group-6" transform="translate(224.500000, 0.000000)">
                        <g id="_724523584" fill="#8A8A8A">
                            <rect id="Rectangle" x="0" y="0" width="33" height="32" rx="16"></rect>
                        </g>
                        <g id="Email" transform="translate(7.000000, 9.000000)" fill="#FFFFFF" fill-rule="nonzero">
                            <path d="M1.13636364,0 C0.511697953,0.00692255874 0.00701937774,0.50464005 0,1.12068966 L0,11.8793103 C0.00701937774,12.4953599 0.511697953,12.9930774 1.13636364,13 L18.8636364,13 C19.488302,12.9930774 19.9929806,12.4953599 20,11.8793103 L20,1.12068966 C19.9929806,0.50464005 19.488302,0.00692255874 18.8636364,0 L1.13636364,0 Z M2.44318182,1.34482759 L17.5568182,1.34482759 L10.2414773,7.7887931 C10.1416396,7.87684729 9.85795455,7.87684729 9.75852273,7.7887931 L2.44318182,1.34482759 Z M1.36363636,2.19214901 L6.46996753,6.69572044 L1.36363636,10.8634852 L1.36363636,2.19214901 Z M18.6363636,2.19214901 L18.6363636,10.8634852 L13.5300325,6.69572044 L18.6363636,2.19214901 Z M7.5,7.5994766 L8.84943182,8.79020936 C9.50237793,9.37372184 10.4976221,9.37372184 11.1505682,8.79020936 L12.5,7.5994766 L17.4715909,11.6547722 L2.52840909,11.6547722 L7.5,7.5994766 Z" id="Shape"></path>
                        </g>
                    </g>
                </g>
            </g>
        </g>
    </g>
</svg>