<?xml version="1.0" encoding="UTF-8"?>
<svg width="33px" height="32px" viewBox="0 0 33 32" version="1.1" xmlns="http://www.w3.org/2000/svg" xmlns:xlink="http://www.w3.org/1999/xlink">
    <title>whats-app-seeklogo.com-3</title>
    <g id="Moodboard" stroke="none" stroke-width="1" fill="none" fill-rule="evenodd">
        <g id="Variante-Primer-Fold-" transform="translate(-1083.000000, -55.000000)">
            <g id="Group-8" transform="translate(50.000000, 55.000000)">
                <g id="Group-7" transform="translate(865.500000, 0.000000)">
                    <g id="_724523584" transform="translate(167.500000, 0.000000)">
                        <rect id="Rectangle" fill="#8A8A8A" x="0" y="0" width="33" height="32" rx="16"></rect>
                        <path d="M14.2937225,11.4063342 C14.1049453,10.9999922 13.9063541,10.9917539 13.7269741,10.984606 C13.5800779,10.9785686 13.4120953,10.9789474 13.2442586,10.9789474 C13.0761927,10.9789474 12.8034659,11.0400732 12.5727451,11.2842741 C12.3418785,11.5285154 11.691118,12.1188865 11.691118,13.3197599 C11.691118,14.5206333 12.5936856,15.6809007 12.7194121,15.8438898 C12.8453469,16.0066972 14.4617259,18.549646 17.021866,19.5278834 C19.149277,20.3408703 19.5821936,20.1791734 20.0441352,20.1385473 C20.5059102,20.0979616 21.5342043,19.5482167 21.7439637,18.9783 C21.9538898,18.4084036 21.9538898,17.9201431 21.8910266,17.8180528 C21.827955,17.7161644 21.6601183,17.6552252 21.4081236,17.5332055 C21.156254,17.4111858 19.9180337,16.820633 19.6871254,16.7392395 C19.4562588,16.6578257 19.2884221,16.6171794 19.1204395,16.8614409 C18.9525611,17.105662 18.4702207,17.6552252 18.323137,17.8180528 C18.1762825,17.9810822 18.0294071,18.0013953 17.7773499,17.8793554 C17.5255011,17.7569521 16.7143216,17.4995456 15.7520787,16.6680428 C15.0033457,16.0211546 14.4979811,15.2222415 14.3508974,14.97798 C14.2040429,14.7337589 14.3352285,14.6017038 14.4615384,14.4800273 C14.5745963,14.3705872 14.7133664,14.1949782 14.8395095,14.0524435 C14.9650277,13.9099492 15.0071379,13.8082021 15.0909,13.6455765 C15.1749538,13.482547 15.133031,13.3400527 15.0699595,13.2180128 C15.0071379,13.0960133 14.5175881,11.8889612 14.2937225,11.4063342 L14.2937225,11.4063342 Z M6.94736842,25.2631579 L8.3582738,20.2899005 C7.48807878,18.8345075 7.03026391,17.1833436 7.03082458,15.4918267 C7.03306724,10.1999753 11.4940367,5.89473684 16.9759373,5.89473684 C19.6361309,5.89607994 22.1329839,6.89542223 24.0108617,8.70950151 C25.8882203,10.5236209 26.9220052,12.934896 26.9210507,15.4995444 C26.9186412,20.791055 22.4569034,25.0969951 16.9759373,25.0969951 C16.9755427,25.0969951 16.9763318,25.0969951 16.9759373,25.0969951 L16.9716596,25.0969951 C15.3073955,25.0963536 13.6719746,24.6933051 12.2193515,23.9285833 L6.94736842,25.2631579 Z M12.4364446,22.2819609 L12.7376251,22.4550035 C14.0023102,23.1827981 15.4523482,23.5676785 16.9311154,23.5684211 L16.9342822,23.5684211 C21.4755241,23.5684211 25.1714693,19.9855636 25.1733535,15.5818475 C25.1741601,13.4478357 24.3179555,11.4410871 22.7623356,9.93157014 C21.2066743,8.42209332 19.1382133,7.59035676 16.9374698,7.58947368 C12.3926471,7.58947368 8.69668114,11.17199 8.69506562,15.5753448 C8.69428015,17.0843199 9.12981315,18.5540182 9.95451503,19.8257069 L10.1506104,20.1278391 L9.31810531,23.074802 L12.4364446,22.2819609 L12.4364446,22.2819609 Z" id="path418" fill="#FFFFFF"></path>
                    </g>
                </g>
            </g>
        </g>
    </g>
</svg>